<?xml version="1.0" standalone="no"?>
<!DOCTYPE svg PUBLIC "-//W3C//DTD SVG 20010904//EN"
 "http://www.w3.org/TR/2001/REC-SVG-20010904/DTD/svg10.dtd">
<svg version="1.0" xmlns="http://www.w3.org/2000/svg"
 width="512.000000pt" height="512.000000pt" viewBox="0 0 512.000000 512.000000"
 preserveAspectRatio="xMidYMid meet">
<metadata>
Created by potrace 1.11, written by Peter Selinger 2001-2013
</metadata>
<g transform="translate(0.000000,512.000000) scale(0.100000,-0.100000)"
fill="#000000" stroke="none">
<path d="M3719 4830 c-208 -16 -373 -83 -639 -262 -613 -410 -1322 -994 -2343
-1932 l-257 -236 -173 10 c-94 5 -202 12 -239 15 -38 3 -68 1 -68 -4 0 -12 77
-18 535 -41 209 -11 431 -22 493 -26 l113 -6 41 -54 c30 -40 41 -65 42 -92 l1
-37 -255 1 c-225 2 -705 33 -922 61 l-48 6 0 -35 0 -35 253 -22 c474 -41 612
-51 830 -57 l218 -7 -98 -99 c-279 -283 -732 -656 -895 -738 -94 -47 -160 -57
-245 -37 -35 8 -63 11 -63 6 0 -16 86 -31 160 -27 97 4 185 46 337 160 324
243 818 693 853 777 23 56 3 83 -169 228 l-33 29 153 130 c722 612 1482 1209
2004 1576 377 265 758 486 1000 581 71 28 114 37 205 46 259 24 365 -30 424
-216 7 -21 6 -21 -41 -7 -57 18 -189 20 -255 5 -252 -57 -537 -254 -1123 -776
-369 -329 -756 -643 -1845 -1500 -798 -628 -1092 -864 -1497 -1203 l-173 -144
0 -55 0 -55 24 19 c13 10 109 85 213 167 252 199 826 630 1443 1081 1030 753
1385 1021 1700 1280 465 384 825 605 1119 687 98 28 241 30 288 5 41 -22 71
-61 79 -103 5 -30 -4 -55 -59 -167 -134 -273 -309 -499 -642 -833 -230 -231
-344 -335 -615 -560 -489 -407 -1375 -1048 -1790 -1296 -508 -304 -1118 -563
-1611 -685 -82 -20 -149 -40 -149 -45 0 -4 4 -8 10 -8 26 0 334 85 475 131
l160 52 370 -6 c204 -4 618 -18 920 -32 687 -32 1229 -42 1300 -23 43 11 50
16 50 38 0 20 -10 30 -45 47 -63 31 -181 53 -695 128 -749 109 -1130 167
-1138 174 -4 4 30 27 75 51 46 24 137 74 202 112 l119 69 441 9 c243 5 591 10
775 10 l333 0 -7 -22 c-14 -46 -17 -175 -6 -211 17 -49 79 -103 142 -121 116
-35 262 -14 415 58 112 53 192 106 307 203 l88 74 254 -7 c140 -4 255 -10 255
-14 0 -3 -20 -35 -45 -71 -43 -62 -45 -66 -45 -140 l0 -76 37 -6 c20 -4 40 -4
44 -1 4 2 54 70 111 150 l103 146 58 -4 c31 -2 57 -1 57 4 0 4 -22 8 -50 8
-27 0 -50 3 -50 6 0 3 23 38 51 76 27 38 49 74 47 79 -2 6 -78 -94 -168 -220
-134 -188 -169 -231 -189 -231 -17 0 -22 4 -17 16 15 38 348 494 361 494 8 0
15 5 15 10 0 6 -4 10 -10 10 -6 0 -10 30 -10 70 0 40 4 70 10 70 6 0 10 5 10
10 0 14 -37 12 -43 -2 -2 -7 -62 -95 -131 -195 l-127 -182 -192 5 c-106 3
-220 7 -254 10 l-61 5 48 64 c63 83 85 148 84 250 0 62 -6 94 -25 141 -25 59
-25 60 -5 57 12 -1 158 -19 326 -38 168 -20 322 -38 343 -41 l38 -6 -3 38 -3
38 -400 51 c-366 47 -403 54 -441 77 -45 29 -124 58 -156 58 -12 0 -19 3 -16
6 3 3 149 -15 324 -40 301 -43 683 -96 691 -96 2 0 3 4 3 9 0 5 -26 12 -57 16
-315 37 -1961 281 -1973 292 -3 3 8 14 25 26 70 51 480 382 590 476 786 674
1180 1205 1261 1699 39 235 -18 465 -134 542 -62 41 -123 50 -317 48 -167 -2
-172 -1 -270 31 -219 71 -331 86 -526 71z m256 -20 c69 -10 188 -40 183 -46
-2 -1 -48 -12 -102 -23 -211 -44 -462 -148 -640 -266 -38 -25 -70 -45 -71 -45
-11 0 -13 36 -3 53 63 120 284 278 448 321 67 18 94 19 185 6z m-307 -25
c-127 -52 -317 -214 -361 -307 -20 -43 -14 -83 15 -99 16 -8 31 -2 86 39 200
148 449 260 676 307 97 19 148 20 205 3 l43 -13 -110 -43 c-375 -145 -937
-497 -1568 -983 -298 -229 -948 -762 -1410 -1155 l-191 -162 -268 14 c-147 7
-269 15 -271 17 -11 10 954 875 1371 1228 461 391 1006 804 1305 990 183 113
375 187 490 188 l45 0 -57 -24z m-405 -2895 c100 -17 326 -52 502 -79 302 -45
317 -48 260 -56 -33 -4 -77 -14 -97 -21 -27 -9 -54 -10 -105 -3 -380 53 -848
120 -850 123 -5 5 82 65 95 66 7 0 95 -14 195 -30z m-203 -144 c96 -14 283
-39 415 -55 132 -17 254 -33 270 -36 30 -5 29 -6 -95 -133 -134 -137 -215
-253 -267 -383 l-28 -69 -531 0 c-292 0 -634 -3 -760 -7 l-229 -6 240 161
c132 89 362 249 510 356 149 107 277 195 285 195 8 1 94 -10 190 -23z m1150
-39 c80 -36 144 -97 182 -175 30 -61 33 -74 33 -162 0 -87 -3 -101 -32 -161
-39 -79 -102 -140 -181 -177 -49 -23 -70 -27 -152 -27 -82 0 -103 4 -152 27
-209 98 -283 358 -155 544 100 146 298 203 457 131z m698 -681 l-173 -244 -3
49 c-3 49 -2 51 170 300 l173 250 3 -56 3 -56 -173 -243z m-3425 -346 c139
-16 547 -63 908 -105 740 -85 869 -103 869 -125 0 -32 -384 -31 -1165 4 -518
23 -1061 44 -1299 49 l-98 2 133 52 c74 29 181 75 239 102 58 27 118 50 133
50 16 1 142 -12 280 -29z"/>
<path d="M2861 4205 c-23 -14 -52 -25 -62 -25 -11 0 -19 -7 -19 -17 0 -16 -84
-83 -103 -83 -4 0 -26 -18 -49 -41 -23 -22 -55 -43 -71 -46 -16 -3 -31 -13
-34 -22 -9 -25 -56 -60 -81 -61 -15 0 -26 -7 -29 -19 -5 -19 -74 -81 -90 -81
-5 0 -33 -22 -62 -50 -29 -27 -56 -48 -59 -47 -4 1 -29 -19 -55 -45 -57 -54
-91 -64 -126 -37 -31 24 -56 24 -97 -2 -63 -38 -77 -78 -52 -147 12 -33 12
-34 -37 -77 -28 -24 -53 -44 -56 -45 -3 0 -30 -23 -60 -51 -30 -28 -77 -72
-105 -98 -244 -223 -375 -351 -438 -429 -89 -109 0 -210 103 -117 21 19 46 35
55 35 9 0 16 8 16 18 0 22 58 79 85 84 11 2 21 12 23 24 4 26 60 81 87 86 11
2 21 12 23 22 5 23 57 69 86 76 12 3 22 16 24 28 4 26 56 72 83 72 12 0 19 7
19 18 0 24 50 71 86 81 17 4 29 14 29 24 0 9 20 33 44 53 l43 37 45 -16 c38
-14 49 -15 77 -3 62 26 102 96 77 135 -19 29 59 121 103 121 10 0 20 9 23 19
7 27 78 82 97 75 11 -4 19 2 25 19 11 29 70 77 95 77 9 0 20 9 24 20 9 24 70
70 94 70 10 0 18 6 18 14 0 18 68 69 94 71 12 1 26 12 32 24 14 28 72 71 96
71 10 0 21 7 25 16 3 9 23 32 44 52 49 47 57 79 29 115 -27 34 -61 35 -119 2z
m107 -7 c22 -22 13 -60 -24 -94 -19 -19 -39 -34 -43 -34 -9 0 -75 90 -70 94 2
1 17 12 33 24 31 24 85 29 104 10z m-143 -113 l37 -45 -23 -19 c-13 -11 -34
-25 -47 -32 -24 -13 -22 -15 -72 53 l-20 26 42 31 c23 17 43 31 44 31 2 0 19
-20 39 -45z m-127 -90 c17 -24 32 -46 32 -49 0 -2 -18 -18 -39 -35 l-39 -31
-38 46 -38 46 39 34 c22 19 42 34 45 33 3 0 20 -20 38 -44z m-141 -72 c7 -10
22 -30 33 -45 l20 -27 -34 -26 -35 -26 -35 38 c-20 21 -36 43 -36 50 0 12 48
52 64 53 5 0 15 -8 23 -17z m-57 -154 c0 -12 -79 -61 -89 -55 -5 4 -23 24 -40
45 l-31 39 42 32 43 31 37 -43 c21 -24 38 -46 38 -49z m-155 -51 l36 -42 -38
-33 c-21 -18 -40 -32 -43 -33 -7 0 -83 90 -79 94 2 1 19 14 37 29 19 15 37 27
42 27 5 0 25 -19 45 -42z m-122 -93 l38 -45 -32 -28 c-53 -45 -54 -45 -95 4
l-37 46 39 34 c21 18 41 33 44 34 3 0 23 -20 43 -45z m-134 -92 c103 -125 105
-151 17 -208 -38 -25 -68 -12 -113 47 -22 29 -52 66 -67 81 -51 54 -60 74 -47
105 15 35 68 72 103 72 22 0 42 -18 107 -97z m-130 -198 c1 -10 -79 -80 -82
-73 -1 2 -20 22 -42 46 l-40 43 45 38 45 39 37 -41 c20 -23 37 -46 37 -52z
m-119 -106 c0 -3 -16 -20 -35 -39 l-35 -34 -46 44 -45 45 42 39 41 39 39 -44
c21 -24 38 -46 39 -50z m-148 -63 l37 -43 -33 -32 -32 -31 -44 45 -44 45 29
30 c16 16 34 30 40 30 6 0 27 -20 47 -44z m-72 -137 c0 -3 -16 -20 -35 -39
l-35 -34 -46 44 -45 45 42 39 41 39 39 -44 c21 -24 38 -46 39 -50z m-148 -56
c21 -20 38 -42 38 -48 0 -6 -15 -25 -33 -43 l-33 -32 -44 45 -44 45 34 35 c19
19 36 35 39 35 3 0 22 -17 43 -37z m-104 -116 l42 -43 -35 -34 -35 -34 -45 44
-45 44 32 33 c18 18 35 33 38 33 3 0 25 -19 48 -43z m-84 -168 c-22 -24 -66
-49 -88 -49 -9 0 -23 11 -32 25 -19 29 -8 74 28 112 l22 24 45 -45 c45 -45 45
-45 25 -67z"/>
<path d="M4001 1679 c-67 -13 -125 -46 -171 -95 -62 -67 -84 -124 -84 -214 0
-93 25 -155 91 -222 122 -124 322 -125 447 -3 92 91 119 242 63 357 -63 129
-210 205 -346 177z m186 -65 c96 -46 147 -130 147 -244 0 -64 -4 -83 -29 -128
-47 -86 -125 -139 -219 -149 -181 -18 -336 155 -297 331 41 182 229 272 398
190z"/>
<path d="M3995 1555 c-52 -19 -111 -82 -125 -135 -24 -89 18 -182 102 -224 66
-33 110 -33 176 0 90 45 132 148 98 238 -29 75 -116 137 -191 136 -11 -1 -38
-7 -60 -15z m141 -24 c107 -49 138 -190 61 -278 -112 -128 -317 -52 -317 118
0 130 136 214 256 160z"/>
<path d="M4024 1461 c-30 -13 -64 -59 -64 -88 0 -54 48 -103 100 -103 53 0
100 49 100 104 0 56 -83 109 -136 87z"/>
<path d="M3521 4031 c-7 -5 -22 -6 -32 -4 -13 4 -21 -2 -28 -20 -12 -30 -45
-52 -81 -52 -17 0 -25 -6 -25 -18 0 -25 -56 -68 -72 -55 -16 13 -33 2 -33 -21
0 -24 -65 -74 -99 -75 -14 -1 -35 6 -46 16 -12 10 -35 20 -52 24 -27 5 -37 0
-78 -37 -50 -47 -49 -39 -30 -150 6 -32 3 -38 -28 -62 -24 -18 -37 -23 -45
-15 -15 15 -35 -1 -29 -22 6 -23 -36 -64 -66 -65 -15 0 -23 -7 -25 -22 -4 -27
-50 -62 -77 -60 -14 1 -21 -5 -23 -23 -2 -13 -10 -33 -18 -44 -17 -25 -18 -78
-2 -94 16 -16 47 -15 81 3 16 8 38 14 50 12 17 -1 22 3 22 21 1 30 51 70 82
64 19 -4 23 0 23 20 0 30 34 63 64 63 14 0 22 7 24 22 4 26 57 67 87 68 11 0
31 -8 44 -17 41 -31 78 -23 129 27 40 41 44 48 37 77 -16 73 -13 87 21 113 18
14 44 25 58 25 19 0 26 5 26 19 0 23 47 56 80 56 17 0 26 6 28 20 5 29 43 55
69 48 16 -4 25 0 29 13 3 11 14 36 24 58 20 40 17 63 -8 84 -18 14 -61 16 -81
3z m82 -32 c8 -13 6 -24 -8 -45 l-18 -28 -33 39 c-23 28 -29 42 -21 47 19 13
69 4 80 -13z m-97 -60 l28 -41 -24 -19 c-34 -26 -41 -24 -72 20 l-28 39 33 21
c17 11 33 21 33 21 1 0 14 -18 30 -41z m-102 -73 c14 -19 26 -37 26 -40 0 -2
-14 -14 -31 -27 l-31 -21 -28 33 c-35 41 -36 46 -7 70 31 26 41 24 71 -15z
m-107 -138 c-18 -15 -37 -28 -43 -28 -5 0 -25 15 -43 34 l-33 34 43 32 43 31
33 -38 32 -38 -32 -27z m-204 60 c13 -13 56 -58 96 -100 83 -90 88 -113 37
-164 -24 -24 -43 -34 -66 -34 -32 0 -45 12 -179 160 -43 48 -42 88 4 129 42
37 75 39 108 9z m-88 -234 c15 -19 25 -36 24 -37 -2 -1 -16 -13 -32 -26 l-27
-25 -35 34 -35 34 27 28 c35 36 45 35 78 -8z m-102 -90 l28 -32 -31 -22 c-30
-22 -32 -22 -51 -4 -42 38 -44 56 -13 81 16 12 31 19 34 15 3 -4 18 -21 33
-38z m-102 -137 c-16 -17 -32 -29 -33 -26 -2 2 -16 19 -32 37 l-30 32 30 31
29 30 34 -36 33 -37 -31 -31z m-97 -23 c28 -35 28 -38 11 -50 -26 -19 -74 -18
-82 2 -6 17 21 84 34 84 5 0 21 -16 37 -36z"/>
<path d="M2361 3159 c-14 -5 -30 -8 -37 -5 -15 6 -34 -13 -28 -28 5 -13 -48
-48 -68 -45 -31 4 -40 -2 -35 -21 4 -14 -4 -25 -29 -40 -18 -12 -38 -18 -44
-15 -15 9 -40 -13 -34 -29 7 -18 -62 -68 -97 -70 -18 -1 -36 5 -46 16 -10 12
-30 18 -56 18 -32 0 -46 -7 -78 -39 -41 -41 -49 -74 -27 -114 6 -12 12 -32 13
-45 1 -30 -54 -73 -84 -65 -20 5 -27 -5 -22 -31 3 -17 -43 -56 -66 -56 -16 0
-23 -6 -23 -18 0 -26 -53 -74 -73 -66 -11 4 -19 0 -23 -12 -3 -11 -15 -39 -26
-63 -28 -59 -17 -95 30 -99 19 -2 44 4 57 12 13 9 34 15 47 13 18 -1 23 3 23
20 1 33 42 72 74 70 21 -2 26 3 26 20 1 30 31 61 64 65 17 2 26 9 26 22 0 24
54 66 86 66 14 0 34 -7 45 -15 36 -27 83 -19 125 24 40 40 49 74 29 110 -5 10
-6 30 -2 44 8 31 68 78 88 70 8 -3 17 5 23 19 11 28 47 55 82 60 13 1 24 10
24 18 0 22 43 53 73 54 18 1 27 7 27 17 0 9 5 23 11 30 28 35 35 59 23 82 -21
38 -48 46 -98 26z m83 -31 c12 -19 -9 -68 -30 -68 -6 0 -24 16 -39 36 -22 29
-25 38 -14 45 21 14 71 6 83 -13z m-100 -65 l27 -38 -28 -23 -28 -23 -33 38
-33 38 26 22 c14 13 30 23 34 23 4 0 20 -17 35 -37z m-74 -112 c0 -3 -15 -16
-32 -28 l-32 -22 -28 32 c-34 40 -35 50 0 76 l27 21 33 -37 c17 -20 32 -39 32
-42z m-132 -40 l31 -39 -34 -26 c-18 -14 -38 -26 -42 -26 -5 0 -24 15 -42 34
l-32 33 38 31 c21 17 41 31 44 32 3 0 20 -18 37 -39z m-127 -84 c102 -107 110
-130 57 -184 -55 -57 -79 -49 -186 61 -73 74 -92 99 -92 122 0 36 8 48 51 79
24 18 41 24 58 20 13 -3 64 -48 112 -98z m-163 -154 l29 -38 -32 -27 -32 -27
-33 34 -34 35 29 30 c16 16 32 30 36 30 4 0 20 -17 37 -37z m-101 -150 l-28
-28 -36 39 -35 38 28 24 29 23 35 -35 35 -34 -28 -27z m-89 -80 c-28 -30 -36
-29 -75 9 l-34 33 33 27 33 28 33 -37 32 -37 -22 -23z m-108 -25 c16 -18 30
-37 30 -41 0 -13 -67 -37 -84 -31 -21 8 -21 53 0 82 8 12 17 22 20 22 2 0 18
-15 34 -32z"/>
</g>
</svg>
